<svg width="46" height="54" viewBox="0 0 46 54" fill="none" xmlns="http://www.w3.org/2000/svg">
<path d="M21.209 33.03V36H11.551V19.973H15.269V33.03H21.209ZM33.5046 23.229C33.3946 23.405 33.2773 23.537 33.1526 23.625C33.0353 23.713 32.8813 23.757 32.6906 23.757C32.5219 23.757 32.3386 23.7057 32.1406 23.603C31.9499 23.493 31.7299 23.372 31.4806 23.24C31.2386 23.108 30.9599 22.9907 30.6446 22.888C30.3293 22.778 29.9699 22.723 29.5666 22.723C28.8699 22.723 28.3493 22.8733 28.0046 23.174C27.6673 23.4673 27.4986 23.867 27.4986 24.373C27.4986 24.6957 27.6013 24.9633 27.8066 25.176C28.0119 25.3887 28.2796 25.572 28.6096 25.726C28.9469 25.88 29.3283 26.023 29.7536 26.155C30.1863 26.2797 30.6263 26.4227 31.0736 26.584C31.5209 26.738 31.9573 26.9213 32.3826 27.134C32.8153 27.3467 33.1966 27.618 33.5266 27.948C33.8639 28.278 34.1353 28.6813 34.3406 29.158C34.5459 29.6273 34.6486 30.1957 34.6486 30.863C34.6486 31.6037 34.5203 32.2967 34.2636 32.942C34.0069 33.5873 33.6329 34.152 33.1416 34.636C32.6576 35.1127 32.0563 35.4903 31.3376 35.769C30.6263 36.0403 29.8159 36.176 28.9066 36.176C28.4079 36.176 27.8983 36.1247 27.3776 36.022C26.8643 35.9193 26.3656 35.7763 25.8816 35.593C25.3976 35.4023 24.9429 35.1787 24.5176 34.922C24.0923 34.6653 23.7219 34.3793 23.4066 34.064L24.5066 32.326C24.5946 32.2013 24.7083 32.0987 24.8476 32.018C24.9943 31.93 25.1519 31.886 25.3206 31.886C25.5406 31.886 25.7606 31.9557 25.9806 32.095C26.2079 32.2343 26.4609 32.3883 26.7396 32.557C27.0256 32.7257 27.3519 32.8797 27.7186 33.019C28.0853 33.1583 28.5179 33.228 29.0166 33.228C29.6913 33.228 30.2156 33.0813 30.5896 32.788C30.9636 32.4873 31.1506 32.0143 31.1506 31.369C31.1506 30.995 31.0479 30.6907 30.8426 30.456C30.6373 30.2213 30.3659 30.027 30.0286 29.873C29.6986 29.719 29.3209 29.5833 28.8956 29.466C28.4703 29.3487 28.0339 29.2203 27.5866 29.081C27.1393 28.9343 26.7029 28.7583 26.2776 28.553C25.8523 28.3403 25.4709 28.0653 25.1336 27.728C24.8036 27.3833 24.5359 26.958 24.3306 26.452C24.1253 25.9387 24.0226 25.308 24.0226 24.56C24.0226 23.9587 24.1436 23.372 24.3856 22.8C24.6276 22.228 24.9833 21.7183 25.4526 21.271C25.9219 20.8237 26.4976 20.468 27.1796 20.204C27.8616 19.9327 28.6426 19.797 29.5226 19.797C30.0139 19.797 30.4906 19.8373 30.9526 19.918C31.4219 19.9913 31.8656 20.105 32.2836 20.259C32.7016 20.4057 33.0903 20.5853 33.4496 20.798C33.8163 21.0033 34.1426 21.238 34.4286 21.502L33.5046 23.229Z" fill="url(#paint0_linear_207_5)"/>
<path d="M45.2682 13.8892C45.2405 12.4328 45.2141 11.057 45.2141 9.72602C45.2141 8.68327 44.369 7.83789 43.326 7.83789C35.2511 7.83789 29.1031 5.51726 23.9785 0.534623C23.2454 -0.178334 22.0788 -0.178082 21.3459 0.534623C16.2218 5.51726 10.0748 7.83789 2.00045 7.83789C0.957702 7.83789 0.112325 8.68327 0.112325 9.72602C0.112325 11.0573 0.0861426 12.4336 0.0581984 13.8902C-0.200601 27.4434 -0.555064 46.0052 22.0438 53.8384C22.2442 53.9079 22.4531 53.9427 22.6621 53.9427C22.871 53.9427 23.0802 53.9079 23.2804 53.8384C45.881 46.005 45.527 27.4427 45.2682 13.8892ZM22.6623 50.0509C3.28085 43.0102 3.57389 27.5867 3.83395 13.9622C3.84955 13.1445 3.86466 12.352 3.87523 11.5751C11.4378 11.2559 17.4853 8.96422 22.6623 4.45437C27.8398 8.96422 33.8884 11.2562 41.4515 11.5751C41.462 12.3518 41.4771 13.1438 41.4927 13.961C41.7525 27.5859 42.0453 43.0099 22.6623 50.0509Z" fill="white"/>
<defs>
<linearGradient id="paint0_linear_207_5" x1="23" y1="14" x2="23" y2="40" gradientUnits="userSpaceOnUse">
<stop stop-color="#0174DF"/>
<stop offset="1" stop-color="#0154A1"/>
</linearGradient>
</defs>
</svg>
