<svg width="450" height="54" viewBox="0 0 450 54" fill="none" xmlns="http://www.w3.org/2000/svg">
<path d="M21.209 33.03V36H11.551V19.973H15.269V33.03H21.209ZM33.5046 23.229C33.3946 23.405 33.2773 23.537 33.1526 23.625C33.0353 23.713 32.8813 23.757 32.6906 23.757C32.5219 23.757 32.3386 23.7057 32.1406 23.603C31.9499 23.493 31.7299 23.372 31.4806 23.24C31.2386 23.108 30.9599 22.9907 30.6446 22.888C30.3293 22.778 29.9699 22.723 29.5666 22.723C28.8699 22.723 28.3493 22.8733 28.0046 23.174C27.6673 23.4673 27.4986 23.867 27.4986 24.373C27.4986 24.6957 27.6013 24.9633 27.8066 25.176C28.0119 25.3887 28.2796 25.572 28.6096 25.726C28.9469 25.88 29.3283 26.023 29.7536 26.155C30.1863 26.2797 30.6263 26.4227 31.0736 26.584C31.5209 26.738 31.9573 26.9213 32.3826 27.134C32.8153 27.3467 33.1966 27.618 33.5266 27.948C33.8639 28.278 34.1353 28.6813 34.3406 29.158C34.5459 29.6273 34.6486 30.1957 34.6486 30.863C34.6486 31.6037 34.5203 32.2967 34.2636 32.942C34.0069 33.5873 33.6329 34.152 33.1416 34.636C32.6576 35.1127 32.0563 35.4903 31.3376 35.769C30.6263 36.0403 29.8159 36.176 28.9066 36.176C28.4079 36.176 27.8983 36.1247 27.3776 36.022C26.8643 35.9193 26.3656 35.7763 25.8816 35.593C25.3976 35.4023 24.9429 35.1787 24.5176 34.922C24.0923 34.6653 23.7219 34.3793 23.4066 34.064L24.5066 32.326C24.5946 32.2013 24.7083 32.0987 24.8476 32.018C24.9943 31.93 25.1519 31.886 25.3206 31.886C25.5406 31.886 25.7606 31.9557 25.9806 32.095C26.2079 32.2343 26.4609 32.3883 26.7396 32.557C27.0256 32.7257 27.3519 32.8797 27.7186 33.019C28.0853 33.1583 28.5179 33.228 29.0166 33.228C29.6913 33.228 30.2156 33.0813 30.5896 32.788C30.9636 32.4873 31.1506 32.0143 31.1506 31.369C31.1506 30.995 31.0479 30.6907 30.8426 30.456C30.6373 30.2213 30.3659 30.027 30.0286 29.873C29.6986 29.719 29.3209 29.5833 28.8956 29.466C28.4703 29.3487 28.0339 29.2203 27.5866 29.081C27.1393 28.9343 26.7029 28.7583 26.2776 28.553C25.8523 28.3403 25.4709 28.0653 25.1336 27.728C24.8036 27.3833 24.5359 26.958 24.3306 26.452C24.1253 25.9387 24.0226 25.308 24.0226 24.56C24.0226 23.9587 24.1436 23.372 24.3856 22.8C24.6276 22.228 24.9833 21.7183 25.4526 21.271C25.9219 20.8237 26.4976 20.468 27.1796 20.204C27.8616 19.9327 28.6426 19.797 29.5226 19.797C30.0139 19.797 30.4906 19.8373 30.9526 19.918C31.4219 19.9913 31.8656 20.105 32.2836 20.259C32.7016 20.4057 33.0903 20.5853 33.4496 20.798C33.8163 21.0033 34.1426 21.238 34.4286 21.502L33.5046 23.229Z" fill="url(#paint0_linear_42_40)"/>
<path d="M45.2682 13.8892C45.2405 12.4328 45.2141 11.057 45.2141 9.72602C45.2141 8.68327 44.369 7.83789 43.326 7.83789C35.2511 7.83789 29.1031 5.51726 23.9785 0.534623C23.2454 -0.178334 22.0788 -0.178082 21.3459 0.534623C16.2218 5.51726 10.0748 7.83789 2.00045 7.83789C0.957702 7.83789 0.112325 8.68327 0.112325 9.72602C0.112325 11.0573 0.0861426 12.4336 0.0581984 13.8902C-0.200601 27.4434 -0.555064 46.0052 22.0438 53.8384C22.2442 53.9079 22.4531 53.9427 22.6621 53.9427C22.871 53.9427 23.0802 53.9079 23.2804 53.8384C45.881 46.005 45.527 27.4427 45.2682 13.8892ZM22.6623 50.0509C3.28085 43.0102 3.57389 27.5867 3.83395 13.9622C3.84955 13.1445 3.86466 12.352 3.87523 11.5751C11.4378 11.2559 17.4853 8.96422 22.6623 4.45437C27.8398 8.96422 33.8884 11.2562 41.4515 11.5751C41.462 12.3518 41.4771 13.1438 41.4927 13.961C41.7525 27.5859 42.0453 43.0099 22.6623 50.0509Z" fill="black"/>
<path d="M77.922 33.512H85.538V38H72.108V14.132H77.922V33.512ZM108.575 28.208C108.575 28.752 108.541 29.3187 108.473 29.908H95.3151C95.4058 31.0867 95.7798 31.9933 96.4371 32.628C97.1171 33.24 97.9445 33.546 98.9191 33.546C100.37 33.546 101.378 32.934 101.945 31.71H108.133C107.816 32.9567 107.238 34.0787 106.399 35.076C105.583 36.0733 104.552 36.8553 103.305 37.422C102.058 37.9887 100.664 38.272 99.1231 38.272C97.2645 38.272 95.6098 37.8753 94.1591 37.082C92.7085 36.2887 91.5751 35.1553 90.7591 33.682C89.9431 32.2087 89.5351 30.486 89.5351 28.514C89.5351 26.542 89.9318 24.8193 90.7251 23.346C91.5411 21.8727 92.6745 20.7393 94.1251 19.946C95.5758 19.1527 97.2418 18.756 99.1231 18.756C100.959 18.756 102.591 19.1413 104.019 19.912C105.447 20.6827 106.558 21.782 107.351 23.21C108.167 24.638 108.575 26.304 108.575 28.208ZM102.625 26.678C102.625 25.6807 102.285 24.8873 101.605 24.298C100.925 23.7087 100.075 23.414 99.0551 23.414C98.0805 23.414 97.2531 23.6973 96.5731 24.264C95.9158 24.8307 95.5078 25.6353 95.3491 26.678H102.625ZM121.23 18.756C122.568 18.756 123.735 19.028 124.732 19.572C125.752 20.116 126.534 20.83 127.078 21.714V19.028H132.892V37.966C132.892 39.7113 132.541 41.2867 131.838 42.692C131.158 44.12 130.104 45.2533 128.676 46.092C127.271 46.9307 125.514 47.35 123.406 47.35C120.596 47.35 118.318 46.6813 116.572 45.344C114.827 44.0293 113.83 42.2387 113.58 39.972H119.326C119.508 40.6973 119.938 41.264 120.618 41.672C121.298 42.1027 122.137 42.318 123.134 42.318C124.336 42.318 125.288 41.9667 125.99 41.264C126.716 40.584 127.078 39.4847 127.078 37.966V35.28C126.512 36.164 125.73 36.8893 124.732 37.456C123.735 38 122.568 38.272 121.23 38.272C119.666 38.272 118.25 37.8753 116.98 37.082C115.711 36.266 114.702 35.1213 113.954 33.648C113.229 32.152 112.866 30.4293 112.866 28.48C112.866 26.5307 113.229 24.8193 113.954 23.346C114.702 21.8727 115.711 20.7393 116.98 19.946C118.25 19.1527 119.666 18.756 121.23 18.756ZM127.078 28.514C127.078 27.0633 126.67 25.9187 125.854 25.08C125.061 24.2413 124.086 23.822 122.93 23.822C121.774 23.822 120.788 24.2413 119.972 25.08C119.179 25.896 118.782 27.0293 118.782 28.48C118.782 29.9307 119.179 31.0867 119.972 31.948C120.788 32.7867 121.774 33.206 122.93 33.206C124.086 33.206 125.061 32.7867 125.854 31.948C126.67 31.1093 127.078 29.9647 127.078 28.514ZM157.362 28.208C157.362 28.752 157.328 29.3187 157.26 29.908H144.102C144.193 31.0867 144.567 31.9933 145.224 32.628C145.904 33.24 146.732 33.546 147.706 33.546C149.157 33.546 150.166 32.934 150.732 31.71H156.92C156.603 32.9567 156.025 34.0787 155.186 35.076C154.37 36.0733 153.339 36.8553 152.092 37.422C150.846 37.9887 149.452 38.272 147.91 38.272C146.052 38.272 144.397 37.8753 142.946 37.082C141.496 36.2887 140.362 35.1553 139.546 33.682C138.73 32.2087 138.322 30.486 138.322 28.514C138.322 26.542 138.719 24.8193 139.512 23.346C140.328 21.8727 141.462 20.7393 142.912 19.946C144.363 19.1527 146.029 18.756 147.91 18.756C149.746 18.756 151.378 19.1413 152.806 19.912C154.234 20.6827 155.345 21.782 156.138 23.21C156.954 24.638 157.362 26.304 157.362 28.208ZM151.412 26.678C151.412 25.6807 151.072 24.8873 150.392 24.298C149.712 23.7087 148.862 23.414 147.842 23.414C146.868 23.414 146.04 23.6973 145.36 24.264C144.703 24.8307 144.295 25.6353 144.136 26.678H151.412ZM174.37 18.824C176.591 18.824 178.359 19.5493 179.674 21C181.011 22.428 181.68 24.4 181.68 26.916V38H175.9V27.698C175.9 26.4287 175.571 25.4427 174.914 24.74C174.256 24.0373 173.372 23.686 172.262 23.686C171.151 23.686 170.267 24.0373 169.61 24.74C168.952 25.4427 168.624 26.4287 168.624 27.698V38H162.81V19.028H168.624V21.544C169.213 20.7053 170.006 20.048 171.004 19.572C172.001 19.0733 173.123 18.824 174.37 18.824ZM186.944 28.48C186.944 26.5307 187.306 24.8193 188.032 23.346C188.78 21.8727 189.788 20.7393 191.058 19.946C192.327 19.1527 193.744 18.756 195.308 18.756C196.554 18.756 197.688 19.0167 198.708 19.538C199.75 20.0593 200.566 20.762 201.156 21.646V12.84H206.97V38H201.156V35.28C200.612 36.1867 199.83 36.912 198.81 37.456C197.812 38 196.645 38.272 195.308 38.272C193.744 38.272 192.327 37.8753 191.058 37.082C189.788 36.266 188.78 35.1213 188.032 33.648C187.306 32.152 186.944 30.4293 186.944 28.48ZM201.156 28.514C201.156 27.0633 200.748 25.9187 199.932 25.08C199.138 24.2413 198.164 23.822 197.008 23.822C195.852 23.822 194.866 24.2413 194.05 25.08C193.256 25.896 192.86 27.0293 192.86 28.48C192.86 29.9307 193.256 31.0867 194.05 31.948C194.866 32.7867 195.852 33.206 197.008 33.206C198.164 33.206 199.138 32.7867 199.932 31.948C200.748 31.1093 201.156 29.9647 201.156 28.514ZM212.4 28.48C212.4 26.5307 212.763 24.8193 213.488 23.346C214.236 21.8727 215.245 20.7393 216.514 19.946C217.783 19.1527 219.2 18.756 220.764 18.756C222.101 18.756 223.269 19.028 224.266 19.572C225.286 20.116 226.068 20.83 226.612 21.714V19.028H232.426V38H226.612V35.314C226.045 36.198 225.252 36.912 224.232 37.456C223.235 38 222.067 38.272 220.73 38.272C219.189 38.272 217.783 37.8753 216.514 37.082C215.245 36.266 214.236 35.1213 213.488 33.648C212.763 32.152 212.4 30.4293 212.4 28.48ZM226.612 28.514C226.612 27.0633 226.204 25.9187 225.388 25.08C224.595 24.2413 223.62 23.822 222.464 23.822C221.308 23.822 220.322 24.2413 219.506 25.08C218.713 25.896 218.316 27.0293 218.316 28.48C218.316 29.9307 218.713 31.0867 219.506 31.948C220.322 32.7867 221.308 33.206 222.464 33.206C223.62 33.206 224.595 32.7867 225.388 31.948C226.204 31.1093 226.612 29.9647 226.612 28.514ZM244.826 22.19C245.506 21.1473 246.356 20.3313 247.376 19.742C248.396 19.13 249.529 18.824 250.776 18.824V24.978H249.178C247.727 24.978 246.639 25.2953 245.914 25.93C245.189 26.542 244.826 27.63 244.826 29.194V38H239.012V19.028H244.826V22.19ZM275.315 19.028L263.415 47.01H257.159L261.511 37.354L253.793 19.028H260.287L264.673 30.894L269.025 19.028H275.315ZM298.019 38.238C296.273 38.238 294.709 37.9547 293.327 37.388C291.944 36.8213 290.833 35.9827 289.995 34.872C289.179 33.7613 288.748 32.424 288.703 30.86H294.891C294.981 31.744 295.287 32.424 295.809 32.9C296.33 33.3533 297.01 33.58 297.849 33.58C298.71 33.58 299.39 33.3873 299.889 33.002C300.387 32.594 300.637 32.0387 300.637 31.336C300.637 30.7467 300.433 30.2593 300.025 29.874C299.639 29.4887 299.152 29.1713 298.563 28.922C297.996 28.6727 297.18 28.3893 296.115 28.072C294.573 27.596 293.315 27.12 292.341 26.644C291.366 26.168 290.527 25.4653 289.825 24.536C289.122 23.6067 288.771 22.394 288.771 20.898C288.771 18.6767 289.575 16.9427 291.185 15.696C292.794 14.4267 294.891 13.792 297.475 13.792C300.104 13.792 302.223 14.4267 303.833 15.696C305.442 16.9427 306.303 18.688 306.417 20.932H300.127C300.081 20.1613 299.798 19.5607 299.277 19.13C298.755 18.6767 298.087 18.45 297.271 18.45C296.568 18.45 296.001 18.6427 295.571 19.028C295.14 19.3907 294.925 19.9233 294.925 20.626C294.925 21.3967 295.287 21.9973 296.013 22.428C296.738 22.8587 297.871 23.3233 299.413 23.822C300.954 24.3433 302.201 24.842 303.153 25.318C304.127 25.794 304.966 26.4853 305.669 27.392C306.371 28.2987 306.723 29.466 306.723 30.894C306.723 32.254 306.371 33.4893 305.669 34.6C304.989 35.7107 303.991 36.5947 302.677 37.252C301.362 37.9093 299.809 38.238 298.019 38.238ZM330.565 28.208C330.565 28.752 330.531 29.3187 330.463 29.908H317.305C317.395 31.0867 317.769 31.9933 318.427 32.628C319.107 33.24 319.934 33.546 320.909 33.546C322.359 33.546 323.368 32.934 323.935 31.71H330.123C329.805 32.9567 329.227 34.0787 328.389 35.076C327.573 36.0733 326.541 36.8553 325.295 37.422C324.048 37.9887 322.654 38.272 321.113 38.272C319.254 38.272 317.599 37.8753 316.149 37.082C314.698 36.2887 313.565 35.1553 312.749 33.682C311.933 32.2087 311.525 30.486 311.525 28.514C311.525 26.542 311.921 24.8193 312.715 23.346C313.531 21.8727 314.664 20.7393 316.115 19.946C317.565 19.1527 319.231 18.756 321.113 18.756C322.949 18.756 324.581 19.1413 326.009 19.912C327.437 20.6827 328.547 21.782 329.341 23.21C330.157 24.638 330.565 26.304 330.565 28.208ZM324.615 26.678C324.615 25.6807 324.275 24.8873 323.595 24.298C322.915 23.7087 322.065 23.414 321.045 23.414C320.07 23.414 319.243 23.6973 318.563 24.264C317.905 24.8307 317.497 25.6353 317.339 26.678H324.615ZM334.856 28.514C334.856 26.542 335.252 24.8193 336.046 23.346C336.862 21.8727 337.984 20.7393 339.412 19.946C340.862 19.1527 342.517 18.756 344.376 18.756C346.756 18.756 348.739 19.3793 350.326 20.626C351.935 21.8727 352.989 23.6293 353.488 25.896H347.3C346.778 24.4453 345.77 23.72 344.274 23.72C343.208 23.72 342.358 24.1393 341.724 24.978C341.089 25.794 340.772 26.9727 340.772 28.514C340.772 30.0553 341.089 31.2453 341.724 32.084C342.358 32.9 343.208 33.308 344.274 33.308C345.77 33.308 346.778 32.5827 347.3 31.132H353.488C352.989 33.3533 351.935 35.0987 350.326 36.368C348.716 37.6373 346.733 38.272 344.376 38.272C342.517 38.272 340.862 37.8753 339.412 37.082C337.984 36.2887 336.862 35.1553 336.046 33.682C335.252 32.2087 334.856 30.486 334.856 28.514ZM377.712 19.028V38H371.898V35.416C371.308 36.2547 370.504 36.9347 369.484 37.456C368.486 37.9547 367.376 38.204 366.152 38.204C364.701 38.204 363.42 37.8867 362.31 37.252C361.199 36.5947 360.338 35.654 359.726 34.43C359.114 33.206 358.808 31.7667 358.808 30.112V19.028H364.588V29.33C364.588 30.5993 364.916 31.5853 365.574 32.288C366.231 32.9907 367.115 33.342 368.226 33.342C369.359 33.342 370.254 32.9907 370.912 32.288C371.569 31.5853 371.898 30.5993 371.898 29.33V19.028H377.712ZM390.082 22.19C390.762 21.1473 391.612 20.3313 392.632 19.742C393.652 19.13 394.785 18.824 396.032 18.824V24.978H394.434C392.983 24.978 391.895 25.2953 391.17 25.93C390.445 26.542 390.082 27.63 390.082 29.194V38H384.268V19.028H390.082V22.19ZM404.115 17.056C403.095 17.056 402.256 16.7613 401.599 16.172C400.964 15.56 400.647 14.812 400.647 13.928C400.647 13.0213 400.964 12.2733 401.599 11.684C402.256 11.072 403.095 10.766 404.115 10.766C405.112 10.766 405.928 11.072 406.563 11.684C407.22 12.2733 407.549 13.0213 407.549 13.928C407.549 14.812 407.22 15.56 406.563 16.172C405.928 16.7613 405.112 17.056 404.115 17.056ZM407.005 19.028V38H401.191V19.028H407.005ZM424.172 33.07V38H421.214C419.106 38 417.463 37.49 416.284 36.47C415.106 35.4273 414.516 33.7387 414.516 31.404V23.856H412.204V19.028H414.516V14.404H420.33V19.028H424.138V23.856H420.33V31.472C420.33 32.0387 420.466 32.4467 420.738 32.696C421.01 32.9453 421.464 33.07 422.098 33.07H424.172ZM449.171 19.028L437.271 47.01H431.015L435.367 37.354L427.649 19.028H434.143L438.529 30.894L442.881 19.028H449.171Z" fill="white"/>
<path d="M77.922 33.512H85.538V38H72.108V14.132H77.922V33.512ZM108.575 28.208C108.575 28.752 108.541 29.3187 108.473 29.908H95.3151C95.4058 31.0867 95.7798 31.9933 96.4371 32.628C97.1171 33.24 97.9445 33.546 98.9191 33.546C100.37 33.546 101.378 32.934 101.945 31.71H108.133C107.816 32.9567 107.238 34.0787 106.399 35.076C105.583 36.0733 104.552 36.8553 103.305 37.422C102.058 37.9887 100.664 38.272 99.1231 38.272C97.2645 38.272 95.6098 37.8753 94.1591 37.082C92.7085 36.2887 91.5751 35.1553 90.7591 33.682C89.9431 32.2087 89.5351 30.486 89.5351 28.514C89.5351 26.542 89.9318 24.8193 90.7251 23.346C91.5411 21.8727 92.6745 20.7393 94.1251 19.946C95.5758 19.1527 97.2418 18.756 99.1231 18.756C100.959 18.756 102.591 19.1413 104.019 19.912C105.447 20.6827 106.558 21.782 107.351 23.21C108.167 24.638 108.575 26.304 108.575 28.208ZM102.625 26.678C102.625 25.6807 102.285 24.8873 101.605 24.298C100.925 23.7087 100.075 23.414 99.0551 23.414C98.0805 23.414 97.2531 23.6973 96.5731 24.264C95.9158 24.8307 95.5078 25.6353 95.3491 26.678H102.625ZM121.23 18.756C122.568 18.756 123.735 19.028 124.732 19.572C125.752 20.116 126.534 20.83 127.078 21.714V19.028H132.892V37.966C132.892 39.7113 132.541 41.2867 131.838 42.692C131.158 44.12 130.104 45.2533 128.676 46.092C127.271 46.9307 125.514 47.35 123.406 47.35C120.596 47.35 118.318 46.6813 116.572 45.344C114.827 44.0293 113.83 42.2387 113.58 39.972H119.326C119.508 40.6973 119.938 41.264 120.618 41.672C121.298 42.1027 122.137 42.318 123.134 42.318C124.336 42.318 125.288 41.9667 125.99 41.264C126.716 40.584 127.078 39.4847 127.078 37.966V35.28C126.512 36.164 125.73 36.8893 124.732 37.456C123.735 38 122.568 38.272 121.23 38.272C119.666 38.272 118.25 37.8753 116.98 37.082C115.711 36.266 114.702 35.1213 113.954 33.648C113.229 32.152 112.866 30.4293 112.866 28.48C112.866 26.5307 113.229 24.8193 113.954 23.346C114.702 21.8727 115.711 20.7393 116.98 19.946C118.25 19.1527 119.666 18.756 121.23 18.756ZM127.078 28.514C127.078 27.0633 126.67 25.9187 125.854 25.08C125.061 24.2413 124.086 23.822 122.93 23.822C121.774 23.822 120.788 24.2413 119.972 25.08C119.179 25.896 118.782 27.0293 118.782 28.48C118.782 29.9307 119.179 31.0867 119.972 31.948C120.788 32.7867 121.774 33.206 122.93 33.206C124.086 33.206 125.061 32.7867 125.854 31.948C126.67 31.1093 127.078 29.9647 127.078 28.514ZM157.362 28.208C157.362 28.752 157.328 29.3187 157.26 29.908H144.102C144.193 31.0867 144.567 31.9933 145.224 32.628C145.904 33.24 146.732 33.546 147.706 33.546C149.157 33.546 150.166 32.934 150.732 31.71H156.92C156.603 32.9567 156.025 34.0787 155.186 35.076C154.37 36.0733 153.339 36.8553 152.092 37.422C150.846 37.9887 149.452 38.272 147.91 38.272C146.052 38.272 144.397 37.8753 142.946 37.082C141.496 36.2887 140.362 35.1553 139.546 33.682C138.73 32.2087 138.322 30.486 138.322 28.514C138.322 26.542 138.719 24.8193 139.512 23.346C140.328 21.8727 141.462 20.7393 142.912 19.946C144.363 19.1527 146.029 18.756 147.91 18.756C149.746 18.756 151.378 19.1413 152.806 19.912C154.234 20.6827 155.345 21.782 156.138 23.21C156.954 24.638 157.362 26.304 157.362 28.208ZM151.412 26.678C151.412 25.6807 151.072 24.8873 150.392 24.298C149.712 23.7087 148.862 23.414 147.842 23.414C146.868 23.414 146.04 23.6973 145.36 24.264C144.703 24.8307 144.295 25.6353 144.136 26.678H151.412ZM174.37 18.824C176.591 18.824 178.359 19.5493 179.674 21C181.011 22.428 181.68 24.4 181.68 26.916V38H175.9V27.698C175.9 26.4287 175.571 25.4427 174.914 24.74C174.256 24.0373 173.372 23.686 172.262 23.686C171.151 23.686 170.267 24.0373 169.61 24.74C168.952 25.4427 168.624 26.4287 168.624 27.698V38H162.81V19.028H168.624V21.544C169.213 20.7053 170.006 20.048 171.004 19.572C172.001 19.0733 173.123 18.824 174.37 18.824ZM186.944 28.48C186.944 26.5307 187.306 24.8193 188.032 23.346C188.78 21.8727 189.788 20.7393 191.058 19.946C192.327 19.1527 193.744 18.756 195.308 18.756C196.554 18.756 197.688 19.0167 198.708 19.538C199.75 20.0593 200.566 20.762 201.156 21.646V12.84H206.97V38H201.156V35.28C200.612 36.1867 199.83 36.912 198.81 37.456C197.812 38 196.645 38.272 195.308 38.272C193.744 38.272 192.327 37.8753 191.058 37.082C189.788 36.266 188.78 35.1213 188.032 33.648C187.306 32.152 186.944 30.4293 186.944 28.48ZM201.156 28.514C201.156 27.0633 200.748 25.9187 199.932 25.08C199.138 24.2413 198.164 23.822 197.008 23.822C195.852 23.822 194.866 24.2413 194.05 25.08C193.256 25.896 192.86 27.0293 192.86 28.48C192.86 29.9307 193.256 31.0867 194.05 31.948C194.866 32.7867 195.852 33.206 197.008 33.206C198.164 33.206 199.138 32.7867 199.932 31.948C200.748 31.1093 201.156 29.9647 201.156 28.514ZM212.4 28.48C212.4 26.5307 212.763 24.8193 213.488 23.346C214.236 21.8727 215.245 20.7393 216.514 19.946C217.783 19.1527 219.2 18.756 220.764 18.756C222.101 18.756 223.269 19.028 224.266 19.572C225.286 20.116 226.068 20.83 226.612 21.714V19.028H232.426V38H226.612V35.314C226.045 36.198 225.252 36.912 224.232 37.456C223.235 38 222.067 38.272 220.73 38.272C219.189 38.272 217.783 37.8753 216.514 37.082C215.245 36.266 214.236 35.1213 213.488 33.648C212.763 32.152 212.4 30.4293 212.4 28.48ZM226.612 28.514C226.612 27.0633 226.204 25.9187 225.388 25.08C224.595 24.2413 223.62 23.822 222.464 23.822C221.308 23.822 220.322 24.2413 219.506 25.08C218.713 25.896 218.316 27.0293 218.316 28.48C218.316 29.9307 218.713 31.0867 219.506 31.948C220.322 32.7867 221.308 33.206 222.464 33.206C223.62 33.206 224.595 32.7867 225.388 31.948C226.204 31.1093 226.612 29.9647 226.612 28.514ZM244.826 22.19C245.506 21.1473 246.356 20.3313 247.376 19.742C248.396 19.13 249.529 18.824 250.776 18.824V24.978H249.178C247.727 24.978 246.639 25.2953 245.914 25.93C245.189 26.542 244.826 27.63 244.826 29.194V38H239.012V19.028H244.826V22.19ZM275.315 19.028L263.415 47.01H257.159L261.511 37.354L253.793 19.028H260.287L264.673 30.894L269.025 19.028H275.315ZM298.019 38.238C296.273 38.238 294.709 37.9547 293.327 37.388C291.944 36.8213 290.833 35.9827 289.995 34.872C289.179 33.7613 288.748 32.424 288.703 30.86H294.891C294.981 31.744 295.287 32.424 295.809 32.9C296.33 33.3533 297.01 33.58 297.849 33.58C298.71 33.58 299.39 33.3873 299.889 33.002C300.387 32.594 300.637 32.0387 300.637 31.336C300.637 30.7467 300.433 30.2593 300.025 29.874C299.639 29.4887 299.152 29.1713 298.563 28.922C297.996 28.6727 297.18 28.3893 296.115 28.072C294.573 27.596 293.315 27.12 292.341 26.644C291.366 26.168 290.527 25.4653 289.825 24.536C289.122 23.6067 288.771 22.394 288.771 20.898C288.771 18.6767 289.575 16.9427 291.185 15.696C292.794 14.4267 294.891 13.792 297.475 13.792C300.104 13.792 302.223 14.4267 303.833 15.696C305.442 16.9427 306.303 18.688 306.417 20.932H300.127C300.081 20.1613 299.798 19.5607 299.277 19.13C298.755 18.6767 298.087 18.45 297.271 18.45C296.568 18.45 296.001 18.6427 295.571 19.028C295.14 19.3907 294.925 19.9233 294.925 20.626C294.925 21.3967 295.287 21.9973 296.013 22.428C296.738 22.8587 297.871 23.3233 299.413 23.822C300.954 24.3433 302.201 24.842 303.153 25.318C304.127 25.794 304.966 26.4853 305.669 27.392C306.371 28.2987 306.723 29.466 306.723 30.894C306.723 32.254 306.371 33.4893 305.669 34.6C304.989 35.7107 303.991 36.5947 302.677 37.252C301.362 37.9093 299.809 38.238 298.019 38.238ZM330.565 28.208C330.565 28.752 330.531 29.3187 330.463 29.908H317.305C317.395 31.0867 317.769 31.9933 318.427 32.628C319.107 33.24 319.934 33.546 320.909 33.546C322.359 33.546 323.368 32.934 323.935 31.71H330.123C329.805 32.9567 329.227 34.0787 328.389 35.076C327.573 36.0733 326.541 36.8553 325.295 37.422C324.048 37.9887 322.654 38.272 321.113 38.272C319.254 38.272 317.599 37.8753 316.149 37.082C314.698 36.2887 313.565 35.1553 312.749 33.682C311.933 32.2087 311.525 30.486 311.525 28.514C311.525 26.542 311.921 24.8193 312.715 23.346C313.531 21.8727 314.664 20.7393 316.115 19.946C317.565 19.1527 319.231 18.756 321.113 18.756C322.949 18.756 324.581 19.1413 326.009 19.912C327.437 20.6827 328.547 21.782 329.341 23.21C330.157 24.638 330.565 26.304 330.565 28.208ZM324.615 26.678C324.615 25.6807 324.275 24.8873 323.595 24.298C322.915 23.7087 322.065 23.414 321.045 23.414C320.07 23.414 319.243 23.6973 318.563 24.264C317.905 24.8307 317.497 25.6353 317.339 26.678H324.615ZM334.856 28.514C334.856 26.542 335.252 24.8193 336.046 23.346C336.862 21.8727 337.984 20.7393 339.412 19.946C340.862 19.1527 342.517 18.756 344.376 18.756C346.756 18.756 348.739 19.3793 350.326 20.626C351.935 21.8727 352.989 23.6293 353.488 25.896H347.3C346.778 24.4453 345.77 23.72 344.274 23.72C343.208 23.72 342.358 24.1393 341.724 24.978C341.089 25.794 340.772 26.9727 340.772 28.514C340.772 30.0553 341.089 31.2453 341.724 32.084C342.358 32.9 343.208 33.308 344.274 33.308C345.77 33.308 346.778 32.5827 347.3 31.132H353.488C352.989 33.3533 351.935 35.0987 350.326 36.368C348.716 37.6373 346.733 38.272 344.376 38.272C342.517 38.272 340.862 37.8753 339.412 37.082C337.984 36.2887 336.862 35.1553 336.046 33.682C335.252 32.2087 334.856 30.486 334.856 28.514ZM377.712 19.028V38H371.898V35.416C371.308 36.2547 370.504 36.9347 369.484 37.456C368.486 37.9547 367.376 38.204 366.152 38.204C364.701 38.204 363.42 37.8867 362.31 37.252C361.199 36.5947 360.338 35.654 359.726 34.43C359.114 33.206 358.808 31.7667 358.808 30.112V19.028H364.588V29.33C364.588 30.5993 364.916 31.5853 365.574 32.288C366.231 32.9907 367.115 33.342 368.226 33.342C369.359 33.342 370.254 32.9907 370.912 32.288C371.569 31.5853 371.898 30.5993 371.898 29.33V19.028H377.712ZM390.082 22.19C390.762 21.1473 391.612 20.3313 392.632 19.742C393.652 19.13 394.785 18.824 396.032 18.824V24.978H394.434C392.983 24.978 391.895 25.2953 391.17 25.93C390.445 26.542 390.082 27.63 390.082 29.194V38H384.268V19.028H390.082V22.19ZM404.115 17.056C403.095 17.056 402.256 16.7613 401.599 16.172C400.964 15.56 400.647 14.812 400.647 13.928C400.647 13.0213 400.964 12.2733 401.599 11.684C402.256 11.072 403.095 10.766 404.115 10.766C405.112 10.766 405.928 11.072 406.563 11.684C407.22 12.2733 407.549 13.0213 407.549 13.928C407.549 14.812 407.22 15.56 406.563 16.172C405.928 16.7613 405.112 17.056 404.115 17.056ZM407.005 19.028V38H401.191V19.028H407.005ZM424.172 33.07V38H421.214C419.106 38 417.463 37.49 416.284 36.47C415.106 35.4273 414.516 33.7387 414.516 31.404V23.856H412.204V19.028H414.516V14.404H420.33V19.028H424.138V23.856H420.33V31.472C420.33 32.0387 420.466 32.4467 420.738 32.696C421.01 32.9453 421.464 33.07 422.098 33.07H424.172ZM449.171 19.028L437.271 47.01H431.015L435.367 37.354L427.649 19.028H434.143L438.529 30.894L442.881 19.028H449.171Z" fill="#006CD1"/>
<defs>
<linearGradient id="paint0_linear_42_40" x1="23" y1="14" x2="23" y2="40" gradientUnits="userSpaceOnUse">
<stop stop-color="#0174DF"/>
<stop offset="1" stop-color="#0154A1"/>
</linearGradient>
</defs>
</svg>
