<svg width="229" height="43" viewBox="0 0 229 43" fill="none" xmlns="http://www.w3.org/2000/svg">
<g clip-path="url(#clip0_42_40)">
<rect width="39" height="39" transform="translate(0 2)" fill="white"/>
<path d="M35.8431 12.0419C35.8231 10.989 35.8039 9.99426 35.8039 9.03196C35.8039 8.27806 35.1929 7.66686 34.4388 7.66686C28.6008 7.66686 24.1558 5.98906 20.4508 2.38665C19.9207 1.87119 19.0773 1.87137 18.5474 2.38665C14.8427 5.98906 10.3985 7.66686 4.56081 7.66686C3.80691 7.66686 3.19571 8.27806 3.19571 9.03196C3.19571 9.99444 3.17678 10.9895 3.15658 12.0426C2.96947 21.8415 2.7132 35.2615 19.052 40.9249C19.1969 40.9751 19.3479 41.0002 19.499 41.0002C19.6501 41.0002 19.8013 40.9751 19.946 40.9249C36.2861 35.2614 36.0302 21.841 35.8431 12.0419ZM19.4992 38.1865C5.48653 33.0961 5.6984 21.9451 5.88641 12.0947C5.8977 11.5035 5.90862 10.9305 5.91627 10.3688C11.3839 10.1381 15.7563 8.48119 19.4992 5.2206C23.2425 8.48119 27.6155 10.1382 33.0836 10.3688C33.0912 10.9304 33.1021 11.503 33.1134 12.0938C33.3013 21.9445 33.5129 33.0959 19.4992 38.1865Z" fill="black"/>
<path d="M24.2003 16.758L17.6116 23.3464L14.8 20.5348C14.2669 20.0019 13.4025 20.0019 12.8696 20.5348C12.3364 21.0681 12.3364 21.9323 12.8696 22.4654L16.6463 26.2422C16.9128 26.5087 17.2623 26.6419 17.6116 26.6419C17.9608 26.6419 18.3103 26.5087 18.5768 26.2422L26.1305 18.6886C26.6638 18.1555 26.6638 17.2911 26.1307 16.7582C25.5978 16.2251 24.7334 16.2249 24.2003 16.758Z" fill="#006DD1"/>
</g>
<path d="M63.6206 30.5515V34.7894H48.6664V9.58785H53.8769V30.5515H63.6206ZM79.1992 23.7257C79.1992 23.2279 79.1298 22.7531 78.9908 22.3015C78.8634 21.85 78.655 21.4505 78.3655 21.1031C78.0761 20.7557 77.7113 20.4836 77.2713 20.2868C76.8313 20.0784 76.3045 19.9742 75.6908 19.9742C74.5445 19.9742 73.6471 20.2984 72.9987 20.9468C72.3503 21.5952 71.9277 22.5215 71.7308 23.7257H79.1992ZM71.6613 26.5742C71.8119 28.2531 72.2866 29.4805 73.0855 30.2563C73.8961 31.0321 74.9498 31.42 76.2466 31.42C76.9066 31.42 77.474 31.3447 77.9487 31.1942C78.435 31.0321 78.8577 30.8584 79.2166 30.6731C79.5871 30.4763 79.9171 30.3026 80.2066 30.1521C80.5077 29.99 80.8029 29.9089 81.0924 29.9089C81.4629 29.9089 81.7524 30.0478 81.9608 30.3257L83.3503 32.0626C82.8408 32.6531 82.2792 33.1452 81.6655 33.5389C81.0519 33.921 80.415 34.2278 79.755 34.4594C79.095 34.6794 78.4292 34.83 77.7577 34.911C77.0861 35.0036 76.4377 35.05 75.8124 35.05C74.5619 35.05 73.3924 34.8473 72.304 34.4421C71.2271 34.0252 70.2834 33.4173 69.4729 32.6184C68.674 31.8078 68.0429 30.8063 67.5798 29.6136C67.1166 28.421 66.885 27.0373 66.885 25.4626C66.885 24.2468 67.0819 23.1005 67.4755 22.0236C67.8808 20.9468 68.4598 20.0089 69.2124 19.21C69.965 18.411 70.8798 17.78 71.9566 17.3168C73.0334 16.8421 74.2492 16.6047 75.604 16.6047C76.7503 16.6047 77.804 16.79 78.765 17.1605C79.7377 17.5194 80.5713 18.0463 81.2661 18.741C81.9724 19.4357 82.5166 20.2926 82.8987 21.3115C83.2924 22.3189 83.4892 23.471 83.4892 24.7679C83.4892 25.1268 83.4719 25.4221 83.4371 25.6536C83.4024 25.8852 83.3445 26.0705 83.2634 26.2094C83.1824 26.3484 83.0724 26.4468 82.9334 26.5047C82.7945 26.551 82.615 26.5742 82.395 26.5742H71.6613ZM95.5649 25.1673C96.5491 25.1673 97.2728 24.9184 97.736 24.4205C98.2107 23.9226 98.4481 23.28 98.4481 22.4926C98.4481 21.6705 98.2107 21.0278 97.736 20.5647C97.2728 20.09 96.5491 19.8526 95.5649 19.8526C94.5807 19.8526 93.857 20.09 93.3938 20.5647C92.9307 21.0278 92.6991 21.6705 92.6991 22.4926C92.6991 23.2684 92.9307 23.911 93.3938 24.4205C93.8686 24.9184 94.5923 25.1673 95.5649 25.1673ZM100.098 35.5189C100.098 35.2063 99.9996 34.9515 99.8028 34.7547C99.606 34.5578 99.3396 34.4015 99.0038 34.2857C98.6796 34.17 98.2917 34.0889 97.8402 34.0426C97.3886 33.9847 96.9081 33.9442 96.3986 33.921C95.8891 33.8863 95.3623 33.8573 94.8181 33.8342C94.2738 33.811 93.7412 33.7705 93.2202 33.7126C92.8149 33.9557 92.4791 34.2452 92.2128 34.581C91.9581 34.9052 91.8307 35.2757 91.8307 35.6926C91.8307 35.9821 91.8944 36.2484 92.0217 36.4915C92.1607 36.7347 92.3865 36.9431 92.6991 37.1168C93.0117 37.2905 93.4228 37.4236 93.9323 37.5163C94.4417 37.6205 95.0786 37.6726 95.8428 37.6726C96.6302 37.6726 97.296 37.6205 97.8402 37.5163C98.3844 37.4121 98.8244 37.2615 99.1602 37.0647C99.496 36.8794 99.7333 36.6536 99.8723 36.3873C100.023 36.121 100.098 35.8315 100.098 35.5189ZM104.857 17.4731V19.2273C104.857 19.5052 104.776 19.7252 104.614 19.8873C104.463 20.0494 104.209 20.171 103.85 20.2521L102.391 20.5473C102.588 21.1147 102.686 21.7226 102.686 22.371C102.686 23.2626 102.501 24.0673 102.13 24.7852C101.771 25.4915 101.273 26.0994 100.636 26.6089C99.9996 27.1068 99.247 27.4947 98.3786 27.7726C97.5102 28.0389 96.5723 28.1721 95.5649 28.1721C94.9281 28.1721 94.3317 28.12 93.776 28.0157C93.2896 28.3168 93.0465 28.6468 93.0465 29.0057C93.0465 29.3415 93.2086 29.5847 93.5328 29.7352C93.8686 29.8857 94.3028 29.9957 94.8354 30.0652C95.3796 30.1231 95.9933 30.1636 96.6765 30.1868C97.3712 30.1984 98.0717 30.2331 98.7781 30.291C99.496 30.3489 100.196 30.4531 100.88 30.6036C101.574 30.7426 102.188 30.98 102.721 31.3157C103.265 31.64 103.699 32.0742 104.023 32.6184C104.359 33.1626 104.527 33.8631 104.527 34.72C104.527 35.5189 104.33 36.2947 103.936 37.0473C103.543 37.8 102.97 38.4715 102.217 39.0621C101.476 39.6526 100.561 40.1273 99.4728 40.4863C98.3844 40.8452 97.1454 41.0247 95.756 41.0247C94.3781 41.0247 93.1796 40.8915 92.1607 40.6252C91.1533 40.3705 90.3138 40.0231 89.6423 39.5831C88.9823 39.1547 88.4902 38.6568 88.166 38.0894C87.8417 37.5221 87.6796 36.9315 87.6796 36.3178C87.6796 35.5189 87.9228 34.8415 88.4091 34.2857C88.8954 33.73 89.567 33.2842 90.4238 32.9484C89.9723 32.6936 89.6075 32.3636 89.3296 31.9584C89.0633 31.5415 88.9302 31.0031 88.9302 30.3431C88.9302 29.8105 89.1212 29.2489 89.5033 28.6584C89.897 28.0679 90.4991 27.5757 91.3096 27.1821C90.3949 26.6957 89.6712 26.0473 89.1386 25.2368C88.606 24.4147 88.3396 23.4594 88.3396 22.371C88.3396 21.4794 88.5191 20.6747 88.8781 19.9568C89.2486 19.2389 89.7581 18.631 90.4065 18.1331C91.0549 17.6236 91.8191 17.2357 92.6991 16.9694C93.5791 16.7031 94.5344 16.57 95.5649 16.57C97.0933 16.57 98.4423 16.871 99.6117 17.4731H104.857ZM120.801 23.7257C120.801 23.2279 120.731 22.7531 120.592 22.3015C120.465 21.85 120.256 21.4505 119.967 21.1031C119.678 20.7557 119.313 20.4836 118.873 20.2868C118.433 20.0784 117.906 19.9742 117.292 19.9742C116.146 19.9742 115.249 20.2984 114.6 20.9468C113.952 21.5952 113.529 22.5215 113.332 23.7257H120.801ZM113.263 26.5742C113.413 28.2531 113.888 29.4805 114.687 30.2563C115.498 31.0321 116.551 31.42 117.848 31.42C118.508 31.42 119.075 31.3447 119.55 31.1942C120.036 31.0321 120.459 30.8584 120.818 30.6731C121.189 30.4763 121.519 30.3026 121.808 30.1521C122.109 29.99 122.404 29.9089 122.694 29.9089C123.064 29.9089 123.354 30.0478 123.562 30.3257L124.952 32.0626C124.442 32.6531 123.881 33.1452 123.267 33.5389C122.653 33.921 122.016 34.2278 121.356 34.4594C120.696 34.6794 120.031 34.83 119.359 34.911C118.688 35.0036 118.039 35.05 117.414 35.05C116.163 35.05 114.994 34.8473 113.905 34.4421C112.829 34.0252 111.885 33.4173 111.074 32.6184C110.275 31.8078 109.644 30.8063 109.181 29.6136C108.718 28.421 108.486 27.0373 108.486 25.4626C108.486 24.2468 108.683 23.1005 109.077 22.0236C109.482 20.9468 110.061 20.0089 110.814 19.21C111.566 18.411 112.481 17.78 113.558 17.3168C114.635 16.8421 115.851 16.6047 117.205 16.6047C118.352 16.6047 119.405 16.79 120.366 17.1605C121.339 17.5194 122.173 18.0463 122.868 18.741C123.574 19.4357 124.118 20.2926 124.5 21.3115C124.894 22.3189 125.091 23.471 125.091 24.7679C125.091 25.1268 125.073 25.4221 125.039 25.6536C125.004 25.8852 124.946 26.0705 124.865 26.2094C124.784 26.3484 124.674 26.4468 124.535 26.5047C124.396 26.551 124.216 26.5742 123.996 26.5742H113.263ZM134.943 18.9668C135.302 18.6194 135.673 18.301 136.055 18.0115C136.448 17.7221 136.859 17.4731 137.288 17.2647C137.728 17.0563 138.197 16.8942 138.695 16.7784C139.204 16.6626 139.754 16.6047 140.345 16.6047C141.317 16.6047 142.18 16.7726 142.933 17.1084C143.685 17.4442 144.316 17.9131 144.826 18.5152C145.347 19.1173 145.735 19.8352 145.989 20.6689C146.256 21.5026 146.389 22.4173 146.389 23.4131V34.7894H141.613V23.4131C141.613 22.4173 141.381 21.6473 140.918 21.1031C140.455 20.5473 139.772 20.2694 138.868 20.2694C138.197 20.2694 137.566 20.4142 136.975 20.7036C136.385 20.9931 135.823 21.3984 135.291 21.9194V34.7894H130.497V16.8826H133.449C134.052 16.8826 134.451 17.1605 134.648 17.7163L134.943 18.9668ZM163.701 21.5373C163.25 21.0163 162.758 20.6515 162.225 20.4431C161.704 20.2347 161.148 20.1305 160.558 20.1305C159.979 20.1305 159.452 20.2405 158.977 20.4605C158.502 20.6805 158.091 21.0278 157.744 21.5026C157.408 21.9657 157.148 22.5621 156.962 23.2915C156.777 24.021 156.684 24.8894 156.684 25.8968C156.684 26.8926 156.76 27.7378 156.91 28.4326C157.061 29.1273 157.275 29.6889 157.553 30.1173C157.842 30.5457 158.19 30.8584 158.595 31.0552C159 31.2405 159.452 31.3331 159.95 31.3331C160.795 31.3331 161.501 31.1652 162.069 30.8294C162.648 30.4936 163.192 30.0189 163.701 29.4052V21.5373ZM168.495 8.89311V34.7894H165.542C164.929 34.7894 164.535 34.5115 164.361 33.9557L163.962 32.3926C163.603 32.7863 163.221 33.1452 162.815 33.4694C162.422 33.7936 161.993 34.0773 161.53 34.3205C161.067 34.5521 160.569 34.7315 160.036 34.8589C159.504 34.9863 158.925 35.05 158.3 35.05C157.339 35.05 156.459 34.8473 155.66 34.4421C154.861 34.0368 154.166 33.4463 153.575 32.6705C152.996 31.8831 152.545 30.9221 152.221 29.7873C151.896 28.6526 151.734 27.3557 151.734 25.8968C151.734 24.5652 151.914 23.3263 152.273 22.18C152.643 21.0336 153.164 20.0436 153.836 19.21C154.508 18.3763 155.318 17.7221 156.268 17.2473C157.217 16.7726 158.271 16.5352 159.429 16.5352C160.401 16.5352 161.218 16.68 161.878 16.9694C162.549 17.2589 163.157 17.6526 163.701 18.1505V8.89311H168.495ZM184.275 27.3036C183.106 27.3615 182.133 27.4657 181.358 27.6163C180.582 27.7552 179.962 27.9405 179.499 28.1721C179.048 28.4036 178.723 28.67 178.527 28.971C178.341 29.2605 178.249 29.5789 178.249 29.9263C178.249 30.621 178.44 31.1131 178.822 31.4026C179.215 31.6921 179.76 31.8368 180.454 31.8368C181.253 31.8368 181.942 31.6978 182.521 31.42C183.112 31.1305 183.697 30.6847 184.275 30.0826V27.3036ZM174.514 19.3663C175.568 18.4168 176.732 17.7105 178.005 17.2473C179.279 16.7726 180.657 16.5352 182.139 16.5352C183.204 16.5352 184.154 16.7089 184.988 17.0563C185.833 17.4036 186.545 17.89 187.124 18.5152C187.714 19.1289 188.166 19.8642 188.479 20.721C188.791 21.5778 188.948 22.5157 188.948 23.5347V34.7894H186.759C186.308 34.7894 185.96 34.7257 185.717 34.5984C185.485 34.471 185.294 34.2047 185.144 33.7994L184.762 32.6531C184.31 33.0468 183.87 33.3942 183.442 33.6952C183.025 33.9963 182.591 34.251 182.139 34.4594C181.688 34.6563 181.201 34.8068 180.68 34.911C180.171 35.0152 179.598 35.0673 178.961 35.0673C178.173 35.0673 177.455 34.9631 176.807 34.7547C176.159 34.5463 175.597 34.2394 175.122 33.8342C174.659 33.4173 174.3 32.9021 174.045 32.2884C173.791 31.6747 173.663 30.9684 173.663 30.1694C173.663 29.5094 173.831 28.8494 174.167 28.1894C174.503 27.5294 175.076 26.9331 175.887 26.4005C176.709 25.8563 177.797 25.4105 179.152 25.0631C180.518 24.7042 182.226 24.5015 184.275 24.4552V23.5347C184.275 22.4115 184.038 21.5894 183.563 21.0684C183.089 20.5357 182.405 20.2694 181.514 20.2694C180.854 20.2694 180.304 20.3505 179.864 20.5126C179.424 20.6631 179.036 20.831 178.7 21.0163C178.376 21.19 178.069 21.3578 177.78 21.52C177.49 21.6705 177.154 21.7457 176.772 21.7457C176.437 21.7457 176.153 21.6647 175.921 21.5026C175.701 21.3289 175.516 21.1263 175.365 20.8947L174.514 19.3663ZM199.619 19.8352C200.187 18.8163 200.841 18.0115 201.582 17.421C202.323 16.8305 203.191 16.5352 204.187 16.5352C204.998 16.5352 205.658 16.7263 206.167 17.1084L205.855 20.6515C205.797 20.8831 205.704 21.0452 205.577 21.1379C205.461 21.2189 205.299 21.2594 205.09 21.2594C204.905 21.2594 204.639 21.2363 204.291 21.19C203.944 21.1321 203.62 21.1031 203.319 21.1031C202.879 21.1031 202.485 21.1668 202.138 21.2942C201.802 21.4215 201.501 21.601 201.235 21.8326C200.968 22.0642 200.725 22.3479 200.505 22.6836C200.297 23.0194 200.1 23.4015 199.915 23.83V34.7894H195.121V16.8826H197.952C198.438 16.8826 198.774 16.9694 198.959 17.1431C199.145 17.3168 199.278 17.6179 199.359 18.0463L199.619 19.8352ZM227.251 16.8826L217.594 39.6005C217.444 39.9247 217.258 40.1678 217.038 40.33C216.83 40.4921 216.494 40.5731 216.031 40.5731H212.47L215.857 33.3478L208.667 16.8826H212.87C213.252 16.8826 213.547 16.9694 213.756 17.1431C213.964 17.3168 214.115 17.5194 214.207 17.751L217.611 26.3136C217.739 26.6494 217.849 26.991 217.941 27.3384C218.046 27.6742 218.144 28.01 218.237 28.3457C218.445 27.6626 218.682 26.9794 218.949 26.2963L222.11 17.751C222.202 17.4963 222.37 17.2879 222.614 17.1257C222.857 16.9636 223.123 16.8826 223.412 16.8826H227.251Z" fill="#006CD1"/>
<defs>
<clipPath id="clip0_42_40">
<rect width="39" height="39" fill="white" transform="translate(0 2)"/>
</clipPath>
</defs>
</svg>
