<svg width="1440" height="34" viewBox="0 0 1440 34" fill="none" xmlns="http://www.w3.org/2000/svg">
<rect y="3.87524" width="22.5093" height="9.375" fill="#006DD1"/>
<rect x="90.0371" y="3.87524" width="22.5093" height="9.375" fill="#006DD1"/>
<rect x="180.074" y="3.87524" width="22.5093" height="9.375" fill="#006DD1"/>
<rect x="270.111" y="3.87524" width="22.5093" height="9.375" fill="#006DD1"/>
<rect x="45.0186" y="3.87524" width="22.5093" height="9.375" fill="#006DD1"/>
<rect x="135.056" y="3.87524" width="22.5093" height="9.375" fill="#006DD1"/>
<rect x="225.093" y="3.87524" width="22.5093" height="9.375" fill="#006DD1"/>
<rect x="315.13" y="3.87524" width="22.5093" height="9.375" fill="#006DD1"/>
<rect x="22.5093" y="3.87524" width="22.5093" height="9.375" fill="white"/>
<rect x="112.546" y="3.87524" width="22.5093" height="9.375" fill="white"/>
<rect x="202.583" y="3.87524" width="22.5093" height="9.375" fill="white"/>
<rect x="292.621" y="3.87524" width="22.5093" height="9.375" fill="white"/>
<rect x="67.5278" y="3.87524" width="22.5093" height="9.375" fill="white"/>
<rect x="157.565" y="3.87524" width="22.5093" height="9.375" fill="white"/>
<rect x="247.602" y="3.87524" width="22.5093" height="9.375" fill="white"/>
<rect x="337.639" y="3.87524" width="22.5093" height="9.375" fill="white"/>
<rect x="22.5093" y="13.2502" width="22.5093" height="9.375" fill="#006DD1"/>
<rect x="112.546" y="13.2502" width="22.5093" height="9.375" fill="#006DD1"/>
<rect x="202.583" y="13.2502" width="22.5093" height="9.375" fill="#006DD1"/>
<rect x="292.621" y="13.2502" width="22.5093" height="9.375" fill="#006DD1"/>
<rect x="67.5276" y="13.2502" width="22.5093" height="9.375" fill="#006DD1"/>
<rect x="157.565" y="13.2502" width="22.5093" height="9.375" fill="#006DD1"/>
<rect x="247.602" y="13.2502" width="22.5093" height="9.375" fill="#006DD1"/>
<rect x="337.639" y="13.2502" width="22.5093" height="9.375" fill="#006DD1"/>
<rect x="45.0186" y="13.2502" width="22.5093" height="9.375" fill="white"/>
<rect x="135.056" y="13.2502" width="22.5093" height="9.375" fill="white"/>
<rect x="225.093" y="13.2502" width="22.5093" height="9.375" fill="white"/>
<rect x="315.13" y="13.2502" width="22.5093" height="9.375" fill="white"/>
<rect x="90.0371" y="13.2502" width="22.5093" height="9.375" fill="white"/>
<rect x="180.074" y="13.2502" width="22.5093" height="9.375" fill="white"/>
<rect x="270.111" y="13.2502" width="22.5093" height="9.375" fill="white"/>
<rect y="22.6252" width="22.5093" height="9.375" fill="#006DD1"/>
<rect x="90.0371" y="22.6252" width="22.5093" height="9.375" fill="#006DD1"/>
<rect x="180.074" y="22.6252" width="22.5093" height="9.375" fill="#006DD1"/>
<rect x="270.111" y="22.6252" width="22.5093" height="9.375" fill="#006DD1"/>
<rect x="45.0186" y="22.6252" width="22.5093" height="9.375" fill="#006DD1"/>
<rect x="135.056" y="22.6252" width="22.5093" height="9.375" fill="#006DD1"/>
<rect x="225.093" y="22.6252" width="22.5093" height="9.375" fill="#006DD1"/>
<rect x="315.13" y="22.6252" width="22.5093" height="9.375" fill="#006DD1"/>
<rect x="22.5093" y="22.6252" width="22.5093" height="9.375" fill="white"/>
<rect x="112.546" y="22.6252" width="22.5093" height="9.375" fill="white"/>
<rect x="202.583" y="22.6252" width="22.5093" height="9.375" fill="white"/>
<rect x="292.621" y="22.6252" width="22.5093" height="9.375" fill="white"/>
<rect x="67.5278" y="22.6252" width="22.5093" height="9.375" fill="white"/>
<rect x="157.565" y="22.6252" width="22.5093" height="9.375" fill="white"/>
<rect x="247.602" y="22.6252" width="22.5093" height="9.375" fill="white"/>
<rect x="337.639" y="22.6252" width="22.5093" height="9.375" fill="white"/>
<path d="M0 32L359.951 31.9998" stroke="#006DD1" stroke-width="4"/>
<path d="M0 2H359.951" stroke="#006DD1" stroke-width="4"/>
<rect x="359.95" y="3.87524" width="22.5093" height="9.375" fill="#006DD1"/>
<rect x="449.988" y="3.87524" width="22.5093" height="9.375" fill="#006DD1"/>
<rect x="540.025" y="3.87524" width="22.5093" height="9.375" fill="#006DD1"/>
<rect x="630.062" y="3.87524" width="22.5093" height="9.375" fill="#006DD1"/>
<rect x="404.969" y="3.87524" width="22.5093" height="9.375" fill="#006DD1"/>
<rect x="495.006" y="3.87524" width="22.5093" height="9.375" fill="#006DD1"/>
<rect x="585.043" y="3.87524" width="22.5093" height="9.375" fill="#006DD1"/>
<rect x="675.081" y="3.87524" width="22.5093" height="9.375" fill="#006DD1"/>
<rect x="382.46" y="3.87524" width="22.5093" height="9.375" fill="white"/>
<rect x="472.497" y="3.87524" width="22.5093" height="9.375" fill="white"/>
<rect x="562.534" y="3.87524" width="22.5093" height="9.375" fill="white"/>
<rect x="652.571" y="3.87524" width="22.5093" height="9.375" fill="white"/>
<rect x="427.479" y="3.87524" width="22.5093" height="9.375" fill="white"/>
<rect x="517.516" y="3.87524" width="22.5093" height="9.375" fill="white"/>
<rect x="607.553" y="3.87524" width="22.5093" height="9.375" fill="white"/>
<rect x="697.59" y="3.87524" width="22.5093" height="9.375" fill="white"/>
<rect x="382.46" y="13.2502" width="22.5093" height="9.375" fill="#006DD1"/>
<rect x="472.497" y="13.2502" width="22.5093" height="9.375" fill="#006DD1"/>
<rect x="562.534" y="13.2502" width="22.5093" height="9.375" fill="#006DD1"/>
<rect x="652.571" y="13.2502" width="22.5093" height="9.375" fill="#006DD1"/>
<rect x="427.478" y="13.2502" width="22.5093" height="9.375" fill="#006DD1"/>
<rect x="517.516" y="13.2502" width="22.5093" height="9.375" fill="#006DD1"/>
<rect x="607.552" y="13.2502" width="22.5093" height="9.375" fill="#006DD1"/>
<rect x="697.59" y="13.2502" width="22.5093" height="9.375" fill="#006DD1"/>
<rect x="404.969" y="13.2502" width="22.5093" height="9.375" fill="white"/>
<rect x="495.006" y="13.2502" width="22.5093" height="9.375" fill="white"/>
<rect x="585.043" y="13.2502" width="22.5093" height="9.375" fill="white"/>
<rect x="675.08" y="13.2502" width="22.5093" height="9.375" fill="white"/>
<rect x="449.988" y="13.2502" width="22.5093" height="9.375" fill="white"/>
<rect x="540.025" y="13.2502" width="22.5093" height="9.375" fill="white"/>
<rect x="630.062" y="13.2502" width="22.5093" height="9.375" fill="white"/>
<rect x="359.95" y="22.6252" width="22.5093" height="9.375" fill="#006DD1"/>
<rect x="449.988" y="22.6252" width="22.5093" height="9.375" fill="#006DD1"/>
<rect x="540.025" y="22.6252" width="22.5093" height="9.375" fill="#006DD1"/>
<rect x="630.062" y="22.6252" width="22.5093" height="9.375" fill="#006DD1"/>
<rect x="404.969" y="22.6252" width="22.5093" height="9.375" fill="#006DD1"/>
<rect x="495.006" y="22.6252" width="22.5093" height="9.375" fill="#006DD1"/>
<rect x="585.043" y="22.6252" width="22.5093" height="9.375" fill="#006DD1"/>
<rect x="675.081" y="22.6252" width="22.5093" height="9.375" fill="#006DD1"/>
<rect x="382.46" y="22.6252" width="22.5093" height="9.375" fill="white"/>
<rect x="472.497" y="22.6252" width="22.5093" height="9.375" fill="white"/>
<rect x="562.534" y="22.6252" width="22.5093" height="9.375" fill="white"/>
<rect x="652.571" y="22.6252" width="22.5093" height="9.375" fill="white"/>
<rect x="427.479" y="22.6252" width="22.5093" height="9.375" fill="white"/>
<rect x="517.516" y="22.6252" width="22.5093" height="9.375" fill="white"/>
<rect x="607.553" y="22.6252" width="22.5093" height="9.375" fill="white"/>
<rect x="697.59" y="22.6252" width="22.5093" height="9.375" fill="white"/>
<path d="M359.95 32L719.901 31.9998" stroke="#006DD1" stroke-width="4"/>
<path d="M359.95 2H719.901" stroke="#006DD1" stroke-width="4"/>
<rect x="719.901" y="3.87524" width="22.5093" height="9.375" fill="#006DD1"/>
<rect x="809.938" y="3.87524" width="22.5093" height="9.375" fill="#006DD1"/>
<rect x="899.975" y="3.87524" width="22.5093" height="9.375" fill="#006DD1"/>
<rect x="990.012" y="3.87524" width="22.5093" height="9.375" fill="#006DD1"/>
<rect x="764.919" y="3.87524" width="22.5093" height="9.375" fill="#006DD1"/>
<rect x="854.957" y="3.87524" width="22.5093" height="9.375" fill="#006DD1"/>
<rect x="944.994" y="3.87524" width="22.5093" height="9.375" fill="#006DD1"/>
<rect x="1035.03" y="3.87524" width="22.5093" height="9.375" fill="#006DD1"/>
<rect x="742.41" y="3.87524" width="22.5093" height="9.375" fill="white"/>
<rect x="832.447" y="3.87524" width="22.5093" height="9.375" fill="white"/>
<rect x="922.484" y="3.87524" width="22.5093" height="9.375" fill="white"/>
<rect x="1012.52" y="3.87524" width="22.5093" height="9.375" fill="white"/>
<rect x="787.429" y="3.87524" width="22.5093" height="9.375" fill="white"/>
<rect x="877.466" y="3.87524" width="22.5093" height="9.375" fill="white"/>
<rect x="967.503" y="3.87524" width="22.5093" height="9.375" fill="white"/>
<rect x="1057.54" y="3.87524" width="22.5093" height="9.375" fill="white"/>
<rect x="742.41" y="13.2502" width="22.5093" height="9.375" fill="#006DD1"/>
<rect x="832.447" y="13.2502" width="22.5093" height="9.375" fill="#006DD1"/>
<rect x="922.484" y="13.2502" width="22.5093" height="9.375" fill="#006DD1"/>
<rect x="1012.52" y="13.2502" width="22.5093" height="9.375" fill="#006DD1"/>
<rect x="787.429" y="13.2502" width="22.5093" height="9.375" fill="#006DD1"/>
<rect x="877.466" y="13.2502" width="22.5093" height="9.375" fill="#006DD1"/>
<rect x="967.503" y="13.2502" width="22.5093" height="9.375" fill="#006DD1"/>
<rect x="1057.54" y="13.2502" width="22.5093" height="9.375" fill="#006DD1"/>
<rect x="764.919" y="13.2502" width="22.5093" height="9.375" fill="white"/>
<rect x="854.957" y="13.2502" width="22.5093" height="9.375" fill="white"/>
<rect x="944.994" y="13.2502" width="22.5093" height="9.375" fill="white"/>
<rect x="1035.03" y="13.2502" width="22.5093" height="9.375" fill="white"/>
<rect x="809.938" y="13.2502" width="22.5093" height="9.375" fill="white"/>
<rect x="899.975" y="13.2502" width="22.5093" height="9.375" fill="white"/>
<rect x="990.012" y="13.2502" width="22.5093" height="9.375" fill="white"/>
<rect x="719.901" y="22.6252" width="22.5093" height="9.375" fill="#006DD1"/>
<rect x="809.938" y="22.6252" width="22.5093" height="9.375" fill="#006DD1"/>
<rect x="899.975" y="22.6252" width="22.5093" height="9.375" fill="#006DD1"/>
<rect x="990.012" y="22.6252" width="22.5093" height="9.375" fill="#006DD1"/>
<rect x="764.919" y="22.6252" width="22.5093" height="9.375" fill="#006DD1"/>
<rect x="854.957" y="22.6252" width="22.5093" height="9.375" fill="#006DD1"/>
<rect x="944.994" y="22.6252" width="22.5093" height="9.375" fill="#006DD1"/>
<rect x="1035.03" y="22.6252" width="22.5093" height="9.375" fill="#006DD1"/>
<rect x="742.41" y="22.6252" width="22.5093" height="9.375" fill="white"/>
<rect x="832.447" y="22.6252" width="22.5093" height="9.375" fill="white"/>
<rect x="922.484" y="22.6252" width="22.5093" height="9.375" fill="white"/>
<rect x="1012.52" y="22.6252" width="22.5093" height="9.375" fill="white"/>
<rect x="787.429" y="22.6252" width="22.5093" height="9.375" fill="white"/>
<rect x="877.466" y="22.6252" width="22.5093" height="9.375" fill="white"/>
<rect x="967.503" y="22.6252" width="22.5093" height="9.375" fill="white"/>
<rect x="1057.54" y="22.6252" width="22.5093" height="9.375" fill="white"/>
<path d="M719.901 32L1079.85 31.9998" stroke="#006DD1" stroke-width="4"/>
<path d="M719.901 2H1079.85" stroke="#006DD1" stroke-width="4"/>
<rect x="1079.85" y="3.87524" width="22.5093" height="9.375" fill="#006DD1"/>
<rect x="1169.89" y="3.87524" width="22.5093" height="9.375" fill="#006DD1"/>
<rect x="1259.93" y="3.87524" width="22.5093" height="9.375" fill="#006DD1"/>
<rect x="1349.96" y="3.87524" width="22.5093" height="9.375" fill="#006DD1"/>
<rect x="1124.87" y="3.87524" width="22.5093" height="9.375" fill="#006DD1"/>
<rect x="1214.91" y="3.87524" width="22.5093" height="9.375" fill="#006DD1"/>
<rect x="1304.94" y="3.87524" width="22.5093" height="9.375" fill="#006DD1"/>
<rect x="1394.98" y="3.87524" width="22.5093" height="9.375" fill="#006DD1"/>
<rect x="1102.36" y="3.87524" width="22.5093" height="9.375" fill="white"/>
<rect x="1192.4" y="3.87524" width="22.5093" height="9.375" fill="white"/>
<rect x="1282.44" y="3.87524" width="22.5093" height="9.375" fill="white"/>
<rect x="1372.47" y="3.87524" width="22.5093" height="9.375" fill="white"/>
<rect x="1147.38" y="3.87524" width="22.5093" height="9.375" fill="white"/>
<rect x="1237.42" y="3.87524" width="22.5093" height="9.375" fill="white"/>
<rect x="1327.45" y="3.87524" width="22.5093" height="9.375" fill="white"/>
<rect x="1417.49" y="3.87524" width="22.5093" height="9.375" fill="white"/>
<rect x="1102.36" y="13.2502" width="22.5093" height="9.375" fill="#006DD1"/>
<rect x="1192.4" y="13.2502" width="22.5093" height="9.375" fill="#006DD1"/>
<rect x="1282.44" y="13.2502" width="22.5093" height="9.375" fill="#006DD1"/>
<rect x="1372.47" y="13.2502" width="22.5093" height="9.375" fill="#006DD1"/>
<rect x="1147.38" y="13.2502" width="22.5093" height="9.375" fill="#006DD1"/>
<rect x="1237.42" y="13.2502" width="22.5093" height="9.375" fill="#006DD1"/>
<rect x="1327.45" y="13.2502" width="22.5093" height="9.375" fill="#006DD1"/>
<rect x="1417.49" y="13.2502" width="22.5093" height="9.375" fill="#006DD1"/>
<rect x="1124.87" y="13.2502" width="22.5093" height="9.375" fill="white"/>
<rect x="1214.91" y="13.2502" width="22.5093" height="9.375" fill="white"/>
<rect x="1304.94" y="13.2502" width="22.5093" height="9.375" fill="white"/>
<rect x="1394.98" y="13.2502" width="22.5093" height="9.375" fill="white"/>
<rect x="1169.89" y="13.2502" width="22.5093" height="9.375" fill="white"/>
<rect x="1259.93" y="13.2502" width="22.5093" height="9.375" fill="white"/>
<rect x="1349.96" y="13.2502" width="22.5093" height="9.375" fill="white"/>
<rect x="1079.85" y="22.6252" width="22.5093" height="9.375" fill="#006DD1"/>
<rect x="1169.89" y="22.6252" width="22.5093" height="9.375" fill="#006DD1"/>
<rect x="1259.93" y="22.6252" width="22.5093" height="9.375" fill="#006DD1"/>
<rect x="1349.96" y="22.6252" width="22.5093" height="9.375" fill="#006DD1"/>
<rect x="1124.87" y="22.6252" width="22.5093" height="9.375" fill="#006DD1"/>
<rect x="1214.91" y="22.6252" width="22.5093" height="9.375" fill="#006DD1"/>
<rect x="1304.94" y="22.6252" width="22.5093" height="9.375" fill="#006DD1"/>
<rect x="1394.98" y="22.6252" width="22.5093" height="9.375" fill="#006DD1"/>
<rect x="1102.36" y="22.6252" width="22.5093" height="9.375" fill="white"/>
<rect x="1192.4" y="22.6252" width="22.5093" height="9.375" fill="white"/>
<rect x="1282.44" y="22.6252" width="22.5093" height="9.375" fill="white"/>
<rect x="1372.47" y="22.6252" width="22.5093" height="9.375" fill="white"/>
<rect x="1147.38" y="22.6252" width="22.5093" height="9.375" fill="white"/>
<rect x="1237.42" y="22.6252" width="22.5093" height="9.375" fill="white"/>
<rect x="1327.45" y="22.6252" width="22.5093" height="9.375" fill="white"/>
<rect x="1417.49" y="22.6252" width="22.5093" height="9.375" fill="white"/>
<path d="M1079.85 32L1439.8 31.9998" stroke="#006DD1" stroke-width="4"/>
<path d="M1079.85 2H1439.8" stroke="#006DD1" stroke-width="4"/>
</svg>
